<?xml version="1.0" encoding="UTF-8" standalone="no"?>
<!-- Created with Inkscape (http://www.inkscape.org/) -->

<svg
   width="205mm"
   height="205mm"
   viewBox="0 0 205 205"
   version="1.1"
   id="svg1"
   inkscape:version="1.4.2 (ebf0e940d0, 2025-05-08)"
   sodipodi:docname="drawing.svg"
   xmlns:inkscape="http://www.inkscape.org/namespaces/inkscape"
   xmlns:sodipodi="http://sodipodi.sourceforge.net/DTD/sodipodi-0.dtd"
   xmlns="http://www.w3.org/2000/svg"
   xmlns:svg="http://www.w3.org/2000/svg">
  <sodipodi:namedview
     id="namedview1"
     pagecolor="#000000"
     bordercolor="#000000"
     borderopacity="0"
     inkscape:showpageshadow="2"
     inkscape:pageopacity="0.0"
     inkscape:pagecheckerboard="true"
     inkscape:deskcolor="#d1d1d1"
     inkscape:document-units="mm"
     inkscape:zoom="0.67526984"
     inkscape:cx="-176.22585"
     inkscape:cy="-174.74496"
     inkscape:window-width="2240"
     inkscape:window-height="1331"
     inkscape:window-x="0"
     inkscape:window-y="0"
     inkscape:window-maximized="1"
     inkscape:current-layer="layer1"
     showborder="true"
     borderlayer="false" />
  <defs
     id="defs1" />
  <g
     inkscape:label="Layer 1"
     inkscape:groupmode="layer"
     id="layer1">
    <path
       style="fill:#82aaff;fill-opacity:1;stroke-width:1.29648"
       d="M 84.617941,201.96056 C 75.89467,201.13551 68.949249,199.63973 66.240507,198.00269 62.303874,195.62362 51.003794,184.94202 47.052259,179.8647 40.135636,170.9775 36.103285,162.5361 36.657126,158.10331 c 0.273973,-2.19283 2.969558,-3.88631 10.100038,-6.34526 12.021261,-4.14557 18.192992,-8.316 21.069784,-14.23752 1.187653,-2.44464 1.758467,-10.79411 0.751217,-10.98816 -1.241981,-0.2393 -3.617395,-3.12579 -6.554983,-7.96525 -1.436499,-2.36655 -3.48279,-4.97603 -6.555354,-8.35958 -5.472118,-6.02597 -5.885746,-8.62375 -2.308051,-14.495743 1.502648,-2.466256 1.849763,-3.629924 0.884224,-2.964279 -0.203302,0.140164 -0.900916,0.472491 -1.550257,0.738519 -1.578685,0.646754 -1.867143,1.127431 -1.728532,2.880254 0.127082,1.607002 -0.240286,1.585171 -0.795386,-0.04731 -0.809246,-2.379835 -0.484359,-4.025098 1.132486,-5.735076 2.95372,-3.123848 2.350222,-8.989882 -1.102031,-10.711849 -4.105489,-2.047789 -6.801747,-6.765818 -6.830333,-11.952003 -0.01434,-2.600661 0.479094,-3.761158 0.792517,-1.863926 0.485367,2.938045 0.908335,4.008778 2.291818,5.801662 2.048527,2.654741 3.437787,3.716447 5.087759,3.888209 1.929774,0.200886 2.452041,-0.957133 0.655399,-1.453208 -1.863179,-0.514449 -3.779606,-2.843367 -4.277423,-5.198085 -0.518771,-2.453837 -0.575874,-5.717122 -0.06724,-3.842455 0.815006,3.003844 3.842733,6.472662 6.435271,7.372783 5.746939,1.995317 11.346771,2.217459 7.688255,0.304985 -0.906534,-0.473882 -1.293644,-0.576798 -4.027579,-1.07071 -3.256071,-0.58825 -4.721504,-1.325114 -6.677442,-3.357632 -1.458459,-1.515558 -1.296447,-1.842652 0.311611,-0.629144 1.878439,1.41755 2.961413,1.727814 6.909038,1.979389 2.51536,0.160302 3.57742,0.301175 4.607372,0.611145 0.60858,0.183159 0.60858,0.183159 0.695644,-0.649828 0.04784,-0.458141 0.242416,-1.172327 0.432296,-1.587077 0.707785,-1.546013 -0.130931,-2.568236 -3.420556,-4.168948 -1.11491,-0.542506 -1.714936,-1.143541 -0.898267,-0.899772 1.319467,0.393849 1.787629,0.543282 2.452946,0.782967 3.765208,1.356421 5.598596,1.593737 4.83751,0.626168 -0.326624,-0.415223 -1.076522,-0.731756 -2.38641,-1.0073 -1.024342,-0.215476 -1.96724,-0.67764 -4.450337,-2.181342 -2.302439,-1.3943 -3.892732,-1.825475 -5.255958,-1.425042 -0.380035,0.111623 -0.830892,0.247007 -1.001909,0.300838 -1.140975,0.359149 0.398654,-1.108883 1.779662,-1.696902 1.562113,-0.665131 4.693425,-0.345235 7.111962,0.726556 2.347627,1.040375 3.273735,1.053118 2.72093,0.03744 -1.140801,-2.096033 -5.777507,-4.279453 -7.70102,-3.626402 -0.77878,0.264401 -0.884078,0.200556 -0.642983,-0.389867 0.530496,-1.299141 0.554316,-1.448084 0.560273,-3.503349 0.02328,-8.02787 -1.558564,-15.241983 -2.943869,-13.425754 -1.287594,1.688122 -1.735716,3.717359 -1.885709,8.539077 -0.06737,2.166194 -0.168008,4.404941 -0.223603,4.974992 -0.09467,0.970645 -0.102874,1.207167 -0.06775,1.950978 0.02837,0.600706 0.972346,1.311954 2.264239,1.706006 1.60983,0.491028 1.377306,0.765231 -0.648917,0.765231 -1.057412,0 -2.447696,0.480671 -2.86804,0.991583 -1.241695,1.509228 -2.188318,4.047076 -2.188318,5.866764 0,1.170259 -0.07522,1.571503 -0.294596,1.571503 -0.269256,0 -0.434801,-0.835654 -0.544814,-2.750177 -0.163559,-2.846405 -1.027067,-2.661692 -3.327611,0.711814 -1.422892,2.086523 -0.865574,-0.132205 0.627191,-2.496899 0.481456,-0.762674 0.46307,-0.948677 -0.246922,-2.498061 -1.291208,-2.817739 -1.104868,-5.007605 0.686134,-8.063485 1.223542,-2.087656 3.515199,-4.600728 3.515199,-3.854828 0,0.06554 -0.534135,0.858431 -1.186974,1.761975 -2.366753,3.275663 -3.075934,5.396111 -2.303981,6.888903 0.216594,0.418846 0.216594,0.418846 0.583533,-0.755295 0.548991,-1.756667 2.272958,-4.687649 2.577871,-4.382736 0.109876,0.109875 -0.0371,0.854126 -0.428951,2.172142 -0.608915,2.04813 0.09514,4.422662 0.858369,2.895 1.852315,-3.707528 2.153742,-6.939542 1.049165,-11.249543 -0.627343,-2.447863 -0.363481,-3.682794 1.325367,-6.202997 0.501249,-0.747995 1.025419,-1.540038 1.164825,-1.760099 0.160705,-0.253684 0.292678,-0.830345 0.360617,-1.575731 0.183143,-2.009355 0.956651,-3.21902 3.186262,-4.982895 0.570048,-0.450975 1.596142,-1.318882 2.280203,-1.928682 1.709002,-1.523469 1.727429,-1.536948 1.727429,-1.263452 0,0.122298 -0.349764,0.634646 -0.777239,1.13856 -3.299738,3.8897 -3.751009,6.289471 -2.102284,11.179511 1.159726,3.439695 1.878904,3.609237 2.814071,0.663403 0.485079,-1.528033 1.070446,-2.913959 1.583222,-3.748477 0.485961,-0.790865 0.839307,-1.90893 1.317929,-4.170124 0.789282,-3.728901 4.192029,-9.564191 7.695919,-13.197549 1.005214,-1.042345 1.015856,-1.459325 0.0503,-1.970443 -2.826385,-1.496163 -8.555767,2.832622 -11.978318,9.050123 -1.426513,2.591442 -1.806374,2.699203 -0.818539,0.232207 2.795449,-6.981299 8.780727,-13.66461 12.627151,-14.099784 0.903705,-0.102234 1.551922,-0.4939798 3.360197,-2.0306648 2.10643,-1.7900447 3.716774,-2.2418613 8.684151,-2.4365194 1.672149,-0.065526 3.164651,-0.1635789 3.316667,-0.2178944 0.152006,-0.054332 0.672521,-0.2518742 1.1567,-0.4390198 1.052691,-0.4068926 1.395715,-0.2635066 0.678452,0.2835829 -0.972014,0.7413919 -2.793941,1.332542 -4.109851,1.3334967 -2.668957,0.0021 -5.516516,0.9888118 -5.867507,2.0334938 -0.08223,0.2446471 -0.538125,0.8862614 -1.013162,1.42581 -0.906562,1.029653 -0.980609,1.244803 -0.677552,1.968703 0.527565,1.260195 2.683729,2.380797 7.207221,3.745746 4.530332,1.36701 5.575775,1.529174 9.880881,1.532664 2.907401,0.0024 3.876285,0.04635 4.123523,0.18723 3.153032,1.796704 2.331782,5.646927 -0.945045,4.430593 -2.715656,-1.00802 -3.721151,-0.789202 -3.934197,0.85616 -0.17922,1.384209 -2.176312,3.927746 -3.30667,4.211448 -0.809847,0.203258 -1.586187,-0.861968 -1.692588,-2.32247 -0.155589,-2.135306 -0.268121,-2.224584 -2.813059,-2.231634 -2.677034,-0.0073 -4.962211,0.815236 -6.974573,2.510806 -1.228437,1.035056 -1.286504,1.074727 -1.402783,0.958444 -0.189162,-0.189157 0.300192,-0.861306 1.536743,-2.110795 2.083236,-2.105019 3.794505,-2.883178 7.25641,-3.299681 4.584861,-0.551606 4.437066,-1.504863 -0.29548,-1.905715 -3.306807,-0.280087 -5.855165,0.269125 -7.499054,1.616166 -1.181332,0.968013 -1.279337,0.684447 -0.30665,-0.8873 0.79051,-1.277375 0.792701,-1.250101 -0.100482,-1.250101 -3.381436,0 -8.908022,3.605544 -11.049369,7.208609 -1.89472,3.188088 -1.189053,7.112451 1.274224,7.08632 1.834307,-0.01945 2.05765,-0.541939 1.180113,-2.760685 -1.283929,-3.24626 -0.02419,-5.789119 4.144933,-8.366786 1.732971,-1.071446 2.028579,-0.892435 0.475746,0.288092 -2.396124,1.821626 -3.233851,3.293396 -3.233851,5.681406 0,2.440443 0.293071,2.694109 4.049347,3.504886 2.526183,0.545265 3.815388,1.036176 5.067393,1.929591 1.388784,0.991014 2.844312,2.702846 2.298165,2.702846 -0.0684,0 -0.671767,-0.433394 -1.340887,-0.963098 -2.227828,-1.763642 -3.228411,-1.556345 -3.648111,0.755807 -0.568468,3.131661 -1.623287,5.016136 -4.193367,7.491561 -2.240234,2.157734 -3.212184,2.461638 -1.437918,0.449601 2.820118,-3.198047 3.566851,-4.561044 3.785045,-6.908768 0.343624,-3.697296 -2.599712,-4.875057 -3.255134,-1.302527 -0.165149,0.900209 -0.464204,1.402543 -1.024104,1.720252 -0.77733,0.441087 -1.230147,-0.717193 -0.858972,-2.197224 0.118042,-0.470718 0.118042,-0.470718 -0.383608,-0.389311 -1.060715,0.172131 -1.271688,0.36521 -1.84574,1.689191 -0.338331,0.780317 -1.727433,2.11175 -2.947166,2.824818 -1.950411,1.140224 -2.322851,1.402263 -2.95758,2.08084 -0.942453,1.00755 -0.656813,1.839216 0.759176,2.210442 0.726841,0.190553 1.351529,0.582841 2.787583,1.750514 1.883222,1.531276 1.726386,1.489308 5.560457,1.487921 5.916333,-0.0023 8.217454,-0.886623 10.220666,-3.928501 0.923025,-1.401612 2.424113,-4.395166 2.424113,-4.834298 0,-0.195573 0.103094,-0.502777 0.229101,-0.682675 0.335019,-0.4783 0.600065,-0.05519 0.600065,0.957894 0,0.914876 0.29066,1.971749 0.843539,3.067246 1.541598,3.054563 1.56161,4.217686 0.0885,5.143552 -2.638333,1.658198 -3.829442,2.895745 -4.380309,4.551105 -0.659634,1.982192 -1.781516,3.115891 -1.319667,1.333565 0.519215,-2.003718 -0.448951,-2.903066 -3.125203,-2.903066 -2.506309,0 -3.300285,1.342324 -2.679217,4.529593 0.312662,1.604593 0.14774,3.214295 -0.416726,4.067252 -0.500641,0.756531 -0.564647,0.669856 -0.556989,-0.754321 0.01007,-1.883565 -1.137563,-3.802621 -2.773175,-4.637049 -3.404157,-1.736671 -4.906163,1.454395 -2.528148,5.371125 0.389394,0.641352 0.965692,1.592527 1.280664,2.113725 1.019356,1.686778 1.318748,1.954448 2.186026,1.954448 1.321858,0 2.164067,-0.656756 4.398099,-3.429634 0.892564,-1.107851 1.039294,-1.038125 0.972414,0.462088 -0.05584,1.252145 0.338348,1.523778 2.410515,1.661145 1.115823,0.07396 1.704192,0.183232 2.200869,0.408712 2.00906,0.912065 4.382173,-0.02871 8.601335,-3.409865 1.206272,-0.966667 1.569005,-1.170811 1.569005,-0.882988 0,0.344116 -3.721121,4.846327 -6.551071,7.926193 -1.033328,1.124574 -1.878776,2.09641 -1.878776,2.159637 0,0.83011 4.066119,0.659768 6.022762,-0.25231 1.570642,-0.732144 4.096143,-3.121679 5.754076,-5.444282 0.477356,-0.668739 1.42101,-1.972909 2.09699,-2.898156 2.23827,-3.063658 2.134625,-3.190846 -2.580386,-3.166598 -4.387413,0.02256 -5.740961,0.310352 -7.029011,1.494496 -1.142274,1.050128 -1.660252,1.013796 -0.768235,-0.05388 1.239707,-1.483828 3.302777,-2.771502 5.015684,-3.130559 1.162649,-0.243712 1.313182,-0.385765 0.888197,-0.838151 -0.896764,-0.954563 -2.39014,-1.150628 -4.247075,-0.557593 -1.746434,0.557748 -2.299039,0.244369 -0.765334,-0.434015 2.671558,-1.181678 5.746408,-1.404662 7.911622,-0.573739 2.45002,0.94022 3.267616,0.995746 4.718251,0.32044 0.930644,-0.433232 1.435094,-0.433603 3.045204,-0.0023 2.30938,0.618702 2.58426,0.469236 5.59145,-3.040322 1.01068,-1.179518 1.0491,-0.866999 0.12694,1.032429 -1.51296,3.116169 -1.41664,4.696357 0.40455,6.635432 0.4682,0.498534 0.91529,1.020758 0.99349,1.1605 0.18287,0.326769 0.9809,0.404624 1.3987,0.136453 0.55227,-0.354485 0.6164,-0.785415 0.36233,-2.435256 -0.46934,-3.047818 -0.0819,-4.297339 2.02805,-6.542664 0.67706,-0.720484 1.23105,-1.369765 1.23105,-1.442849 0,-0.606503 -2.93665,1.150194 -4.25757,2.546854 -0.71502,0.756028 -1.13201,0.970797 -1.13201,0.583034 0,-0.279225 1.0326,-1.618218 2.40959,-3.124574 1.0697,-1.170202 2.0143,-2.366709 3.21839,-4.076732 1.23031,-1.747251 4.08443,-1.283098 5.571,0.905992 2.4201,3.563739 2.05814,4.164959 -2.62955,4.367857 -2.04335,0.08846 -2.04335,0.08846 -2.28302,1.20764 -0.32669,1.525535 -0.462,1.752931 -1.94948,3.276398 -1.53196,1.56904 -1.58211,1.786139 -0.90743,3.930164 0.89584,2.846897 1.43601,3.15074 2.89869,1.630429 1.24291,-1.291902 2.28776,-1.790229 5.30602,-2.530648 3.41734,-0.838316 3.47002,-1.466682 0.17977,-2.144524 -2.0072,-0.41351 -3.04771,-0.876338 -3.8611,-1.71746 -0.72145,-0.746034 -0.53086,-0.950297 0.45882,-0.491765 1.28177,0.593849 2.61363,0.341068 4.29432,-0.815034 1.10412,-0.759508 1.26927,-0.766831 2.14022,-0.09492 1.94365,1.49952 2.6032,0.859126 2.62542,-2.549146 0.0118,-1.738571 -0.0393,-1.876922 -1.2626,-3.454856 -0.5589,-0.720885 -0.69499,-0.978704 -0.53415,-1.011887 0.78855,-0.162679 2.99177,2.76441 3.92985,5.220977 0.60548,1.585599 1.95355,3.321089 1.95355,2.514983 0,-3.124003 -1.86742,-6.815113 -5.30723,-10.490168 -1.90567,-2.035991 -1.79344,-2.282113 0.32009,-0.70195 2.49562,1.865843 5.28079,4.997184 6.37098,7.162832 2.56638,5.098037 5.00486,6.143935 9.35044,4.010529 2.73738,-1.343877 4.8605,-1.446119 8.85438,-0.42639 4.50344,1.149829 8.61901,0.554014 10.89455,-1.577209 0.67959,-0.63647 0.67959,-0.63647 0.0626,-0.336421 -4.64708,2.260099 -7.68344,2.244827 -13.21098,-0.06644 -1.93479,-0.809009 -4.16274,-1.00446 -7.32308,-0.642425 -3.23826,0.370964 -4.34948,-0.05383 -5.79172,-2.214029 -0.71907,-1.07707 -2.03674,-2.790726 -3.02172,-3.929895 -0.52576,-0.608055 -1.96637,-2.442582 -3.20134,-4.07673 -3.55401,-4.702743 -3.17812,-4.438613 -7.38418,-5.188889 -3.15541,-0.56286 -3.80857,-1.016161 -1.71682,-1.191464 1.13597,-0.0952 2.90692,-0.472937 4.45066,-0.949313 2.56535,-0.791614 3.2552,-0.348367 5.46276,3.509964 2.47938,4.333437 6.27685,7.730088 10.05149,8.990568 2.09376,0.699184 3.46261,0.616699 6.86671,-0.413783 1.99316,-0.603371 2.14449,-0.597401 3.77241,0.148812 2.79465,1.281026 2.92512,-0.167241 0.3293,-3.655206 -3.21092,-4.314442 -5.04042,-4.923864 -7.83406,-2.609605 -2.40041,1.988509 -3.7208,1.486279 -8.4069,-3.197685 -2.90246,-2.901137 -3.29356,-3.756074 -2.18353,-4.773318 1.39093,-1.274707 2.77291,-1.167613 5.67336,0.439643 2.34008,1.296747 2.49097,1.908531 0.24608,0.997785 -2.99,-1.213038 -3.74538,-0.497275 -2.14525,2.032736 1.91724,3.03135 3.63836,3.148456 6.38322,0.434321 1.81314,-1.792873 1.73521,-1.782561 6.09094,-0.805829 2.91915,0.65459 2.95698,0.656994 4.40122,0.279835 1.42012,-0.37086 4.05825,-0.505834 4.81378,-0.246286 0.85122,0.292425 0.74238,0.465104 -0.40564,0.643585 -3.18708,0.495481 -4.09328,4.307356 -1.02461,4.309863 1.90216,0.0016 7.20634,-5.690851 6.9757,-7.486263 -0.14062,-1.094594 0.31813,-0.936642 0.88052,0.303165 0.33776,0.744673 0.35267,1.243429 0.0797,2.66991 -0.42678,2.230319 -0.24351,3.164671 1.00081,5.103003 1.70938,2.662707 1.60029,2.94653 -0.50048,1.302235 -2.49008,-1.948992 -2.27584,-1.897337 -3.82144,-0.921353 -0.60428,0.381586 -1.59674,0.88421 -2.20544,1.116943 -4.82511,1.844825 -5.83658,6.016303 -1.45223,5.989093 2.00562,-0.01245 2.86462,-0.348021 5.3737,-2.099315 1.65523,-1.155308 1.94956,-1.12087 1.12032,0.13108 -1.75948,2.656327 -5.51411,4.940578 -8.56694,5.211975 -1.03645,0.09215 -1.03645,0.09215 -0.30413,0.259349 5.08483,1.160981 12.61692,-3.709095 12.19541,-7.885294 -0.0784,-0.777593 -0.16984,-2.781928 -0.20307,-4.454079 -0.0807,-4.059414 -0.50429,-5.566409 -1.99526,-7.097147 -1.71066,-1.756265 -2.51947,-1.994968 -6.85997,-2.024571 -2.31169,-0.01577 -3.68349,-0.0829 -4.14582,-0.202865 -1.02387,-0.265682 -1.06838,-0.418112 -0.12214,-0.418112 1.23115,0 2.2362,-0.216913 4.58147,-0.988787 2.77137,-0.912109 2.94418,-1.120245 2.10488,-2.535166 -0.7832,-1.320316 -0.56651,-1.341643 0.97685,-0.09614 0.64084,0.517177 1.69376,1.33601 2.33983,1.819632 2.30732,1.727203 2.8326,2.406494 3.05045,3.9448 0.0668,0.472602 0.31304,1.337158 0.54692,1.921238 1.46997,3.67107 1.41039,9.819897 -0.15762,16.270561 -0.42516,1.749012 -0.42516,1.749012 0.006,3.130981 1.02268,3.270368 1.05044,4.364787 0.1566,6.175544 -1.41482,2.866186 -3.30676,4.288944 -6.64362,4.99609 -5.69438,1.206742 -6.36404,1.696285 -5.31374,3.884422 0.68116,1.419118 0.88652,2.10593 0.62961,2.10593 -0.241,0 -1.47694,-1.966357 -2.25839,-3.593051 -0.38338,-0.798071 -0.71331,-1.470839 -0.73312,-1.49504 -0.0198,-0.02421 -0.3268,0.177908 -0.68212,0.449131 -1.0055,0.76751 -1.55954,0.655133 -3.37981,-0.685524 -1.9619,-1.444955 -2.35498,-1.516426 -3.98466,-0.724484 -1.3939,0.677351 -2.67854,0.640596 -4.93782,-0.141272 -0.9121,-0.315645 -2.25603,-0.693876 -2.98656,-0.840517 -1.61953,-0.325094 -1.88967,-0.460051 -3.25779,-1.627546 -3.49138,-2.979341 -5.46131,-3.386716 -5.57793,-1.153488 -0.0615,1.175917 -0.14924,1.620386 -0.46328,2.3442 -0.35444,0.816933 -0.38637,1.02923 -0.37418,2.487496 0.026,3.122413 -0.91203,3.823712 -4.88968,3.655406 -3.51549,-0.148749 -5.15109,0.763164 -6.21777,3.4667 -1.82375,4.622307 -2.83315,5.079289 -6.84159,3.097344 -2.19085,-1.083263 -2.19085,-1.083263 -3.41082,-0.667802 -0.78043,0.265784 -1.70212,0.458357 -2.55834,0.534523 -1.53009,0.136107 -1.98279,0.342441 -2.4994,1.139173 -0.3722,0.574016 -0.51571,0.922578 -1.553774,3.77383 -0.758604,2.083681 -1.648719,4.193495 -1.857118,4.401912 -0.601804,0.601785 -0.269731,-1.846112 0.50074,-3.691361 0.566495,-1.35674 0.291679,-1.252968 -0.972612,0.367264 -2.2545,2.889225 -2.321871,3.301985 -1.061827,6.505611 1.322871,3.363354 1.264777,3.713309 -0.242171,1.458739 -1.594736,-2.38593 -1.913074,-3.185754 -2.371412,-5.95811 -0.447223,-2.705158 -0.585194,-3.277782 -0.956268,-3.969032 -0.252523,-0.470389 -0.252523,-0.470389 -0.185769,0.915803 0.108301,2.249494 -0.395596,3.976682 -1.684265,5.772895 -0.83869,1.169025 -0.480631,1.9278 1.074148,2.276236 1.558917,0.349363 2.236487,0.982273 4.147234,3.873837 0.728261,1.102108 1.549305,2.29922 1.824538,2.660243 0.349446,0.458375 0.437246,0.656432 0.291024,0.656432 -0.3155,0 -1.689542,-1.314355 -2.370104,-2.267176 -1.605942,-2.248394 -4.299112,-4.089759 -5.981631,-4.089759 -1.182895,0 -1.098006,0.620504 0.433881,3.1716 0.506853,0.844084 1.071864,1.874564 1.25556,2.289943 0.802498,1.814587 1.786981,2.869944 2.955233,3.167971 0.952858,0.243063 0.266466,0.707812 -0.871889,0.590316 -1.57771,-0.16283 -2.334456,-0.687148 -3.461378,-2.398272 -2.250403,-3.417009 -4.47433,-0.939715 -4.48327,4.994046 -0.01428,9.456201 5.453219,16.228421 16.43776,20.360431 4.68037,1.76058 8.02838,3.41114 12.13574,5.98284 6.70315,4.197 11.71771,5.16547 15.96743,3.08385 0.70394,-0.34482 1.71142,-0.71564 2.23886,-0.82404 5.34874,-1.0994 7.00739,-6.19762 2.58057,-7.93201 -1.80182,-0.70594 -2.63286,-0.77618 -6.23796,-0.52719 -0.5345,0.0369 -0.7202,-0.22072 -0.31528,-0.43743 0.67386,-0.36063 2.78936,-0.84317 4.60218,-1.04976 2.4828,-0.28289 4.78058,-0.77048 6.16573,-1.30833 1.47207,-0.57163 1.68838,-0.20683 0.66899,1.12824 -1.1437,1.49784 -1.12152,1.38115 -1.0674,5.61741 0.0685,5.35877 -0.9233,7.0079 -5.24927,8.72843 -2.65964,1.05782 -2.45498,1.378 1.32365,2.07075 2.11987,0.38864 2.06181,0.39904 2.98374,-0.53439 1.21287,-1.22805 3.22462,-1.23308 9.46163,-0.0236 2.0883,0.40494 6.59122,1.18992 9.53542,1.66225 4.58011,0.73477 5.38621,0.9213 6.55217,1.51612 1.39351,0.71093 1.80938,1.42486 2.43812,4.18565 0.26192,1.15007 0.72301,2.81008 1.02462,3.68893 2.33654,6.80772 0.51359,18.96444 -4.2684,28.46507 -2.38628,4.74093 -2.96049,5.3211 -5.2731,5.32783 -2.05023,0.007 -2.42852,0.24715 -3.92825,2.50451 -4.16864,6.27442 -12.35617,15.06957 -15.53053,16.68305 -4.59073,2.3334 -20.36001,5.70325 -29.17532,6.23473 -8.1805,0.49318 -19.760601,0.59472 -23.838527,0.20902 z m 2.763888,-5.49375 c 2.826659,-0.72189 5.159787,-2.3253 6.07056,-4.17189 0.296881,-0.60191 0.438191,-1.05744 1.521944,-4.9059 0.492992,-1.75062 1.107084,-3.48192 1.31331,-3.70257 0.0563,-0.0604 0.141092,0.78697 0.188416,1.88266 0.244409,5.65911 3.083046,9.40184 6.479871,8.54368 1.86411,-0.47095 17.92683,-0.81568 24.22584,-0.51993 6.97108,0.32729 16.56998,-5.35004 24.37179,-14.41482 0.94433,-1.09719 0.98278,-1.19057 0.53772,-1.30603 -0.30655,-0.0795 -0.98061,-0.59541 -3.65168,-2.79482 -3.31971,-2.73351 -3.28759,-2.72312 -9.34771,-3.02553 -0.89813,-0.0448 -2.39061,-0.17816 -3.31667,-0.29631 -3.17203,-0.4047 -4.89867,-0.40414 -7.11101,0.002 -2.55824,0.47002 -2.83206,0.39714 -1.2326,-0.32809 1.94278,-0.88091 4.3623,-1.23859 9.35466,-1.38293 4.62457,-0.13371 4.99952,-0.2278 5.60974,-1.40786 0.90815,-1.75615 -2.61597,-16.4071 -4.2784,-17.78681 -0.72561,-0.60219 -4.79704,3.05111 -5.52827,4.96051 -0.54187,1.41497 -1.98594,4.63642 -2.40015,5.3542 -0.62531,1.08364 -0.6232,0.75313 0.0215,-3.35123 0.63401,-4.0366 -0.0339,-5.46764 -4.06757,-8.71372 -0.92351,-0.74321 -2.8125,-2.4501 -4.19774,-3.79308 -3.32013,-3.21887 -2.9815,-3.13982 -5.7852,-1.35042 -2.07409,1.32378 -3.19742,1.65244 -5.90716,1.72832 -3.54266,0.0991 -4.13636,-0.33573 -1.34054,-0.98204 3.42194,-0.79108 6.48856,-4.65848 5.97571,-7.53613 -0.0215,-0.12108 -0.0817,-0.5135 -0.13384,-0.87187 -0.23947,-1.64948 -1.60434,-2.36916 -4.91466,-2.59143 -3.02398,-0.20301 -3.04292,-0.21474 -6.37048,-3.94449 -2.49286,-2.79418 -4.31261,-4.31933 -8.486659,-7.11271 -5.083264,-3.40186 -7.163316,-5.413 -9.905775,-9.57752 -3.055549,-4.63998 -5.283677,-3.89836 -6.884745,2.2915 -1.375268,5.31694 -1.873654,20.59935 -0.839227,25.73392 0.50187,2.49111 1.154218,3.71978 3.912048,7.3682 1.998629,2.64405 1.911256,2.46288 5.010064,10.38791 2.452718,6.2727 4.778598,14.51054 4.818691,17.06698 0.02301,1.46656 -0.05366,1.48721 -4.126323,1.11128 -4.135618,-0.38177 -5.100482,-0.80336 -2.51796,-1.10028 2.400781,-0.27598 2.414716,-0.42025 0.44835,-4.6405 -0.86926,-1.86561 -0.86926,-1.86561 -0.959652,-4.6295 -0.283484,-8.66853 -0.804836,-9.74038 -3.194267,-6.56708 -0.534678,0.7101 -1.032181,1.26552 -1.105555,1.23429 -0.167551,-0.0715 -0.182104,0.0271 0.332145,-2.24508 0.641387,-2.83387 0.548539,-4.47296 -0.282073,-4.97999 -0.884869,-0.54011 -2.07032,1.92608 -2.947458,6.13181 -2.48075,11.89491 -3.739075,14.16504 -8.89335,16.04448 -3.552907,1.2955 -4.416719,1.30778 -8.519029,0.12094 -3.430284,-0.99242 -3.607398,-1.26882 -0.60462,-0.94355 6.102055,0.66099 10.278412,-2.85907 11.993329,-10.10864 0.722093,-3.05255 1.120381,-4.55446 1.575809,-5.94235 1.425903,-4.34532 -0.220288,-9.55496 -3.788257,-11.98855 -1.062397,-0.72462 -3.177348,0.72004 -5.984559,4.08788 -2.101427,2.52111 -4.604881,3.40779 -10.794179,3.82319 -10.692831,0.71765 -12.225397,1.36857 -12.227624,5.19341 -0.0024,4.18216 1.474241,8.09678 5.273833,13.98081 6.971427,10.79588 12.333393,15.68448 20.775013,18.94093 6.023871,2.32378 7.824105,2.76609 13.543035,3.32739 1.746971,0.17146 7.216517,-0.0284 8.291648,-0.30295 z m 13.474911,-17.68038 c 5.6e-4,-0.0571 0.23375,-0.69442 0.51824,-1.41648 0.51724,-1.31285 0.51724,-1.31285 0.49954,-4.42223 -0.0385,-6.76741 -0.6018,-8.42985 -2.856287,-8.42985 -1.820009,0 -1.994507,0.44911 -2.117854,5.45009 -0.108311,4.38965 -0.273187,4.70232 -0.95335,1.8073 -0.502197,-2.13764 -1.005386,-5.48124 -1.168607,-7.76527 -0.07641,-1.06943 -0.263646,-2.90067 -0.416052,-4.06946 -0.152406,-1.16879 -0.277335,-2.7886 -0.277617,-3.59959 -5.55e-4,-1.61857 -0.379697,-4.49113 -0.890526,-6.74722 -0.421582,-1.8619 -0.411294,-1.86746 0.931347,-0.50281 3.734412,3.79559 11.144836,6.34145 14.239096,4.89187 1.07693,-0.50452 1.64801,-0.96199 3.6503,-2.9241 0.93108,-0.9124 1.69286,-1.58913 1.69286,-1.50382 0,0.0853 -0.50278,1.07711 -1.11729,2.20403 -0.6145,1.12693 -1.58281,3.01285 -2.15179,4.19094 -0.56897,1.17811 -1.84029,3.75887 -2.82516,5.73508 -1.79066,3.59304 -1.79066,3.59304 -2.12411,5.89104 -0.50831,3.50307 -0.88097,4.70757 -2.49569,8.06657 -0.99144,2.06236 -2.14288,3.75632 -2.13705,3.14391 z m 9.67263,-4.48652 c -0.79461,-0.42303 -0.55563,-0.90625 3.47092,-7.01813 1.17674,-1.78617 2.65983,-4.07986 3.29578,-5.09709 4.40342,-7.04358 7.14918,-9.21379 6.87635,-5.43492 -0.0919,1.27387 -0.89339,5.41627 -1.09486,5.65912 -0.24425,0.29443 -0.3871,0.0465 -0.3871,-0.67214 0,-2.69086 -2.05905,0.0669 -3.38593,4.53509 -0.27825,0.93699 -1.06384,1.96322 -3.10049,4.05019 -2.38707,2.44607 -2.41194,2.3037 0.46126,2.64018 2.47931,0.29033 2.40852,0.35231 -1.09185,0.95593 -3.03295,0.52302 -4.56146,0.63871 -5.04408,0.38177 z m 48.09787,-0.0662 c 2.67388,-3.20303 6.77133,-14.51346 7.4628,-20.6 0.49629,-4.36832 0.2527,-5.50011 -2.12997,-9.89753 -0.78432,-1.44752 -1.231,-2.60902 -2.05241,-5.33709 -0.61769,-2.05144 -1.57702,-2.78639 -3.85814,-2.95572 -1.04559,-0.0776 -2.01136,-0.36505 -4.61083,-1.37215 -3.13977,-1.21644 -5.92552,-1.15768 -4.97062,0.1048 0.53559,0.7081 0.004,2.61397 -1.02281,3.675 -0.79717,0.82284 -1.22897,0.94645 -3.79593,1.08686 -5.14605,0.28149 -6.57858,6.02908 -2.79596,11.21806 0.938,1.28672 2.50569,1.97408 5.79734,2.54184 3.2091,0.55352 3.50012,0.21673 3.06625,-3.54869 -0.52178,-4.5284 -0.36916,-7.04661 0.2338,-3.85723 1.15031,6.0851 4.35542,11.50936 6.21041,10.51045 0.95592,-0.51475 1.46403,-0.50396 3.03062,0.0644 2.11426,0.76708 2.44738,0.99823 1.81302,1.25805 -3.42967,1.40484 -5.07694,1.64315 -7.73978,1.11976 -2.27887,-0.44791 -2.24397,-0.44827 -5.23557,0.0555 -3.07753,0.51829 -2.81333,0.39596 -2.81333,1.30264 0,2.1529 3.0134,6.28757 8.77042,12.03385 3.30794,3.30176 3.8154,3.58576 4.64069,2.59712 z M 71.201317,113.78082 c 0.976934,-0.44511 1.49172,-2.29546 0.93947,-3.37684 -1.218287,-2.38555 -1.870935,-2.39527 -7.630115,-0.11334 -0.961662,0.381 -1.580847,0.53592 -2.314745,0.57912 -1.135308,0.0668 -1.121546,0.0531 -0.660189,0.658 0.519615,0.68125 1.334921,0.99585 3.396144,1.31048 2.063007,0.3149 3.240099,0.56828 4.070103,0.87608 0.671766,0.24914 1.728396,0.28108 2.199332,0.0665 z m -10.1455,-6.6895 c 0.418044,-0.048 1.288669,-0.20118 1.934722,-0.34016 1.288123,-0.27706 2.225591,-0.37937 4.422213,-0.48256 2.637286,-0.12394 3.081289,-1.07363 1.337466,-2.86091 -0.476829,-0.48869 -1.308251,-1.41294 -1.847613,-2.05388 -2.261646,-2.687584 -2.277555,-2.691518 -3.32247,-0.82118 -3.466989,6.20579 -12.096418,4.21146 -10.338429,-2.389279 0.324251,-1.217456 0.254087,-1.346399 -0.278313,-0.511493 -2.475733,3.882512 0.381325,8.849932 5.479403,9.526752 0.868108,0.11522 1.072772,0.10993 2.613021,-0.0673 z m 0.01901,-7.749492 c 1.424758,-0.822778 1.2094,-3.197324 -0.398033,-4.388747 -0.897793,-0.665436 -1.342734,-1.520916 -1.624477,-3.123384 -0.78226,-4.449281 -1.918598,-3.946375 -2.152264,0.952522 -0.120443,2.525239 -0.239322,3.395027 -0.603792,4.417887 -0.580091,1.627984 0.50184,2.515784 2.982042,2.446985 1.017766,-0.02833 1.441476,-0.100188 1.796524,-0.305263 z m 1.344608,-10.256082 c 0.276088,-0.29196 0.834296,-0.915494 1.240471,-1.385609 0.406183,-0.470117 1.100006,-1.100254 1.541854,-1.400309 1.475702,-1.002129 1.60043,-1.347427 1.032117,-2.857319 -0.634165,-1.684819 -0.291306,-1.654841 1.040185,0.09096 2.776077,3.639861 4.975982,4.778178 9.743155,5.041479 0.83608,0.0462 2.505181,0.181912 3.709124,0.301638 4.515907,0.449042 1.897604,-2.207437 -2.741758,-2.781752 -3.230822,-0.399926 -4.102802,-1.171999 -1.278299,-1.131815 4.32719,0.06158 4.18558,-1.331546 -0.172745,-1.699418 -3.354941,-0.283184 -4.840184,-1.41327 -5.326145,-4.052557 -0.168961,-0.917604 -0.203424,-0.467734 -0.07122,0.929628 0.09446,0.9985 0.224709,1.549677 0.498332,2.10894 0.710642,1.452516 -0.211164,1.092939 -2.168097,-0.84573 -1.778077,-1.761487 -2.19484,-3.319123 -2.442968,-9.130647 -0.09442,-2.21111 -0.09442,-2.21111 -0.498131,-1.53667 -1.183851,1.977681 -1.684438,4.921599 -1.302113,7.657637 0.27006,1.932611 -0.218786,1.865495 -0.895946,-0.123028 -0.492091,-1.445031 -0.627316,-1.559781 -0.866122,-0.734972 -0.398015,1.374705 -1.176883,2.171508 -2.71097,2.773384 -1.984236,0.778486 -2.666786,1.787036 -2.182435,3.22481 0.265559,0.7883 0.516705,1.385064 1.890839,4.492977 0.789336,1.785281 1.109903,1.958307 1.960872,1.058376 z M 95.131641,65.210395 c 1.411116,-1.149361 2.300814,-1.465724 4.575768,-1.627056 2.377961,-0.168638 2.275321,0.133822 1.015731,-2.993254 -1.145345,-2.843425 -1.018878,-2.688766 -1.874568,-2.292316 -2.502316,1.159346 -4.626174,4.351388 -4.626174,6.952926 0,0.731402 -0.04038,0.733193 0.909243,-0.0403 z m 43.036539,47.395335 c -0.19001,-0.0284 -1.18502,-0.20465 -2.21111,-0.39165 -3.69511,-0.67342 -4.53474,-0.77666 -7.38808,-0.90851 -3.96856,-0.18339 -4.00991,-0.30801 -0.39,-1.17571 4.6269,-1.10906 7.0188,-1.36486 8.38083,-0.89625 1.94389,0.66879 3.54636,0.46192 4.43141,-0.57204 0.65944,-0.77043 0.70375,-0.66982 -1.06107,-2.40912 -1.62599,-1.60247 -2.38976,-2.21979 -4.46394,-3.60791 -3.08878,-2.06712 -3.85526,-3.44116 -2.8148,-5.046075 0.48799,-0.752762 0.6328,-0.659204 0.71294,0.460623 0.11862,1.657169 0.7328,2.054582 3.6269,2.346612 2.96585,0.29923 4.75976,0.59302 6.35567,1.0409 2.97528,0.83495 3.99499,0.38876 5.24409,-2.294594 0.56609,-1.216154 0.56182,-1.356638 -0.17676,-5.819793 -2.30897,-13.952876 -2.64265,-19.473649 -1.4137,-23.390135 0.28932,-0.92207 0.67338,-2.251726 0.85345,-2.95479 0.4721,-1.84321 0.54512,-1.619494 0.51969,1.592143 -0.0334,4.201919 -0.11006,4.176479 4.97796,1.649923 0.42714,-0.21211 1.35674,-1.271298 1.6932,-1.929218 0.2786,-0.544785 0.49247,-0.653696 0.62182,-0.316638 0.16126,0.420278 -0.27193,1.173722 -1.79103,3.11507 -3.95074,5.048811 -3.88249,4.883134 -3.69196,8.963233 0.22937,4.911948 0.0148,7.943721 -0.70057,9.900282 -0.34343,0.939196 -0.40176,2.585323 -0.14201,4.007642 1.00896,5.524818 0.16582,8.191945 -3.0145,9.535615 -1.57603,0.66586 -3.61389,4.0908 -3.88711,6.53287 -0.28135,2.51481 -1.14637,3.03479 -4.27132,2.56752 z M 123.3123,84.694704 c -3.54846,-0.538361 -4.40897,-1.158655 -1.60733,-1.158655 3.60357,0 5.53765,-0.57248 7.79038,-2.305924 1.02497,-0.788691 0.96313,-0.840546 -0.39351,-0.32999 -1.64122,0.617657 -2.77964,0.880467 -3.87774,0.895201 -1.59036,0.02138 -1.51563,-0.415051 0.12745,-0.74385 5.5633,-1.113313 5.53855,-3.673232 -0.0354,-3.65817 -5.34714,0.01446 -6.77015,1.298929 -3.5585,3.212057 1.05027,0.625634 0.10748,0.573953 -1.08892,-0.05967 -2.24204,-1.18747 -2.84368,-1.451507 -3.97217,-1.743231 -0.6561,-0.169606 -1.1746,-0.363306 -1.15222,-0.430451 0.15196,-0.455917 8.47798,-2.521562 10.77838,-2.674068 1.58335,-0.104965 1.63733,-0.253987 0.12913,-0.356358 -1.82626,-0.123955 -5.01184,0.135533 -7.35439,0.599065 -2.22298,0.439865 -7.07964,1.252814 -7.1377,1.194766 -0.29946,-0.299474 1.4148,-1.500215 4.09741,-2.870026 1.72744,-0.882067 1.72744,-0.882067 6.42602,-0.892709 9.87254,-0.02238 10.61156,-1.173717 1.72744,-2.691295 -3.14192,-0.536698 -3.19104,-0.548604 -2.83121,-0.686667 1.72959,-0.663641 16.14864,-0.392375 19.30321,0.363152 2.43049,0.582103 3.1869,-0.399616 2.31272,-3.00167 -0.85633,-2.549009 -0.29793,-2.38883 1.11921,0.321045 0.76039,1.454041 0.86195,1.991223 0.50642,2.678734 -0.25953,0.501869 -0.51037,1.825819 -0.51037,2.693698 0,1.162584 0.0106,1.150624 -4.70297,5.17885 -1.54206,1.317775 -3.19503,2.219215 -4.43575,2.419028 -1.30569,0.210272 -2.1591,0.735045 -4.81889,2.963173 -1.1675,0.978026 -4.28398,1.471864 -6.84063,1.083981 z M 97.608201,47.299589 c -4.029147,-0.507126 -4.886009,-2.886246 -2.355733,-6.540724 2.232205,-3.223976 2.281431,-5.010716 0.195501,-7.096643 -0.716962,-0.71696 -0.955868,-0.710891 -1.797323,0.04565 -1.218059,1.095142 -2.916831,1.849587 -4.817791,2.13965 -1.437291,0.219312 -1.520134,0.254708 -1.520134,0.649559 0,0.656284 0.364444,1.112688 1.099579,1.377037 2.939226,1.05693 3.747836,4.341658 1.976026,8.026876 -0.670266,1.394077 -0.948783,1.011977 -0.505798,-0.693905 0.479922,-1.848204 0.08568,-3.282105 -1.095969,-3.985515 -1.419955,-0.845301 -1.940534,-1.605131 -2.439994,-3.561332 -0.682844,-2.674422 -1.850332,-4.497959 -3.454901,-5.396313 -0.394086,-0.220639 -0.02501,-0.290847 0.779113,-0.148213 4.240419,0.752134 6.59786,0.436094 9.112028,-1.221564 1.302375,-0.858684 1.560364,-0.931321 2.540045,-0.715164 2.590255,0.571519 3.26596,0.501395 4.82995,-0.501235 1.8734,-1.200979 2.66345,-1.353546 4.57241,-0.882972 3.45716,0.852225 1.49665,-4.500831 -2.45282,-6.697254 -2.00419,-1.114597 0.31449,-0.885608 2.48927,0.245838 2.3872,1.24196 3.11741,2.354351 3.56521,5.431302 0.37684,2.589215 0.45973,2.736601 1.96585,3.495042 1.91044,0.96205 3.29171,2.407224 4.3847,4.587512 1.55429,3.100552 1.39831,4.302896 -0.19336,1.490379 -0.74281,-1.312517 -2.61882,-3.003024 -2.38039,-2.144991 0.5706,2.053465 0.19998,3.549281 -1.26295,5.097098 -1.18964,1.258667 -1.32555,1.506568 -1.20784,2.20327 0.21009,1.243345 -0.90767,2.412054 -2.46009,2.572279 -1.37838,0.142261 -1.73772,-0.447493 -0.84762,-1.391164 0.40339,-0.427667 0.48889,-0.617435 0.46436,-1.030699 -0.0165,-0.278588 -0.0214,-0.616641 -0.0106,-0.751228 0.0106,-0.134586 0.8433,-1.100418 1.85039,-2.146293 3.33383,-3.462212 3.57226,-5.165843 0.90044,-6.433774 -2.5679,-1.218608 -4.55709,-1.211139 -6.35861,0.02387 -0.82079,0.562681 -1.86356,1.073262 -2.59318,1.269728 -1.605667,0.432361 -1.854468,0.713009 -2.154133,2.429844 -0.188098,1.077616 -0.803072,2.999296 -1.154217,3.60673 -0.934676,1.616862 -0.758393,1.793318 0.845393,0.846215 4.636057,-2.737787 6.544577,0.246271 3.014087,4.712668 -0.82645,1.045533 -1.704626,1.317021 -3.520769,1.088431 z M 115.77694,29.96617 c -1.77558,-1.179106 -5.46271,-5.750728 -6.8335,-8.472784 -1.51404,-3.006466 -1.72035,-6.474317 -0.54651,-9.186253 0.78222,-1.8072 0.48067,-2.168693 -2.19889,-2.6359676 -1.33448,-0.2327158 -2.5874,-0.6804924 -3.85753,-1.3786483 -1.73592,-0.9541793 -1.40526,-1.1994842 0.73655,-0.5464663 3.11512,0.9497595 6.67411,-0.5044903 5.48427,-2.2409434 -1.30642,-1.9065993 -8.15885,-2.9852581 -11.091319,-1.7459149 -2.157793,0.9119389 -3.802029,2.8556612 -3.799,4.4909499 0.0045,2.5796796 3.977293,6.7330956 7.563149,7.9075466 0.77704,0.25449 1.00788,0.457043 0.72218,0.633622 -0.61537,0.380326 -4.369532,-1.009573 -6.351962,-2.351686 -1.439138,-0.974304 -2.501835,-1.368941 -4.260575,-1.58218 -1.315191,-0.159462 -3.518461,-0.99094 -6.046736,-2.281948 -1.9962,-1.0193063 -2.696454,-1.3071055 -3.615759,-1.4860336 -0.733316,-0.1427293 -1.1401,-0.2863514 -1.1401,-0.4025336 0,-0.8933029 4.147725,-0.5047263 6.77085,0.634321 2.283867,0.9917302 2.76457,0.6930962 3.329481,-2.068422 0.619703,-3.0293733 1.388111,-4.1832033 3.511795,-5.2733611 3.64392,-1.87052323 7.395536,-1.95978953 12.299296,-0.2926491 7.15247,2.4316307 7.37806,2.4772198 10.7462,2.1715305 7.18359,-0.6519762 11.83234,0.407392 18.54129,4.2252066 1.29744,0.7383349 3.10525,1.7453368 4.01732,2.2377833 2.71318,1.46488 4.23327,2.507912 6.49513,4.456696 1.57367,1.355849 2.529,1.833255 5.11318,2.555215 6.27702,1.753641 9.18031,3.268508 3.64004,1.899275 -3.9563,-0.97777 -7.12507,-1.117789 -9.7211,-0.429552 -4.25904,1.129115 -7.2552,0.269862 -5.45915,-1.565605 0.97383,-0.99521 0.96489,-1.156336 -0.0861,-1.549556 -1.70143,-0.636583 -4.78425,0.464006 -4.78425,1.708 0,1.999564 7.60804,7.650226 12.12888,9.008403 1.75318,0.526697 1.67159,0.669842 -0.31327,0.549553 -2.15685,-0.130708 -2.82197,-0.283 -3.97309,-0.909702 -0.53205,-0.289662 -1.46496,-0.686949 -2.07312,-0.882861 -0.61012,-0.196533 -1.84905,-0.79107 -2.76387,-1.326341 -3.32129,-1.943226 -3.92364,-1.980352 -6.24232,-0.384745 -2.54089,1.748495 -2.80276,2.384004 -1.97445,4.791736 0.82929,2.410605 0.45571,2.453569 -0.7443,0.08559 -1.72905,-3.411943 -1.52562,-4.640885 0.96312,-5.818241 1.01944,-0.482277 2.75749,-2.107578 2.51359,-2.35055 -0.6579,-0.655397 -2.16153,-0.688845 -5.0017,-0.11126 -3.37239,0.685813 -3.53366,0.34805 -0.43108,-0.902861 2.60184,-1.049026 3.80822,-1.717107 4.94037,-2.735946 0.5511,-0.495927 1.32846,-1.149453 1.72749,-1.452278 1.69104,-1.283309 -3.09194,-5.1944529 -7.90833,-6.4668088 -1.23278,-0.3256649 -1.41282,-0.5464044 -0.44426,-0.5446587 2.79741,0.00514 8.05878,1.920784 11.23962,4.0925105 2.48495,1.696618 3.10918,1.676295 2.10856,-0.06864 -1.70274,-2.9693566 -5.37286,-4.8235477 -10.97109,-5.5427473 -1.22053,-0.1567986 -3.0736,-0.5304069 -5.52414,-1.1137486 -1.69891,-0.4044199 -2.80143,-0.3848733 -4.01265,0.071149 -0.53206,0.2003095 -1.3094,0.4901471 -1.72743,0.6440796 -0.43755,0.1611157 -1.39889,0.3337031 -2.26554,0.4067227 -1.70157,0.1433683 -1.88028,0.2332257 -1.88028,0.9453555 0,3.2440171 9.65899,7.4996811 13.79339,6.0772391 0.89234,-0.307006 1.13268,-0.22071 0.69284,0.248758 -0.81157,0.866236 -2.31997,1.142397 -6.79085,1.243294 -4.26113,0.09616 -4.03293,0.0017 -3.92723,1.62522 0.23501,3.609493 3.9653,8.316072 7.46012,9.412583 1.2021,0.377159 0.99489,0.52853 -0.57543,0.420376 -3.38436,-0.233094 -4.7757,-1.040682 -7.02825,-4.079422 -1.3082,-1.764821 -1.26538,-1.761539 -1.60102,-0.122791 -0.5947,2.903632 -0.15465,4.782332 1.65264,7.05553 0.6852,0.86184 0.56711,1.232004 -0.22516,0.705871 z"
       id="path1"
       sodipodi:nodetypes="cssssssssssssssssssssssssssssssssssssssssssssssssssssssssssssssssssssssssssssssssssssssssssssssssssssssssssssssssssssssssssssssssssscsssssssssssssssssssssssssssssssssssscscsssssssssssssssssssssscsssssssssscssssssssssssssssssssssssssscsssssssssssssssssssssscsssssssssssscsssssssssssssssssssssssssssssssssssssssssssssssscscssscccssssssssssscsssssscsssssccssssssssssssssssssssssssssssssccssssssssssssssssssssssscssssssscssssssssssssssssssscccsscsssccsscssssssssssssssssssssssssssssssssssssssssssssssssssssscsssssscsssssssssssssssssssssssssssssssssscsssscsssssssssssssssssssssssssssccssssssssccsssssssssssssssssssssssssssssssssssssssssssssssssssssssssssssssss" />
  </g>
</svg>
